<svg id="Capa_1" data-name="Capa 1" xmlns="http://www.w3.org/2000/svg" viewBox="0 0 120 120"><defs><style>.cls-1{fill:#e5a229;}.cls-2{fill:#f1be21;}.cls-3{fill:#fff;}.cls-4{fill:#ebeaea;}.cls-5{fill:#231f20;}</style></defs><polygon class="cls-1" points="96.48 28.77 60 28.77 60 28.77 23.52 28.77 30.35 102.95 60 111.36 60 111.36 60 111.36 60 111.36 60 111.36 89.64 102.95 96.48 28.77"/><polygon class="cls-2" points="60 34.82 60 105.08 60 105.08 84.01 98.27 89.85 34.82 60 34.82"/><polygon class="cls-3" points="79.1 43.92 42.17 43.92 39.61 71.69 39.66 71.52 71.03 71.52 70 83.27 60 86.15 49.84 83.22 49.23 76.11 40.01 76.11 41.33 90.32 60 95.62 78.67 90.32 81.24 62.44 47.96 62.44 48.38 53.14 71.48 53.14 71.82 58.46 81.13 58.46 79.1 43.92"/><path class="cls-4" d="M60,43.92H42.17L39.61,71.69l0-.17H60V62.44H49.24l.43-9.3H60ZM49.23,76.11H40l1.32,14.21L60,95.61V86.15L49.84,83.22Z"/><polygon class="cls-5" points="52.9 17.83 46.41 17.83 46.41 22.49 52.9 22.49 56.37 22.49 57.55 22.49 57.55 8.64 52.9 8.64 52.9 17.83"/><path class="cls-5" d="M73.59,8.71H62.27v4.85c1.51,1.52,2.31,2.24,4.5,4.43h-4.5v4.42H73.59V18l-4.52-4.44h4.52Z"/></svg>